<?xml version="1.0" standalone="no"?><!DOCTYPE svg PUBLIC "-//W3C//DTD SVG 1.1//EN" "http://www.w3.org/Graphics/SVG/1.1/DTD/svg11.dtd"><svg t="1628041639322" class="icon" viewBox="0 0 1024 1024" version="1.1" xmlns="http://www.w3.org/2000/svg" p-id="42370" xmlns:xlink="http://www.w3.org/1999/xlink" width="200" height="200"><defs><style type="text/css"></style></defs><path d="M510.762984 0C306.439263 0 140.789403 165.673674 140.789403 369.997395c0 204.395163 165.64986 370.021209 369.997395 370.02121 204.323721 0 370.021209-165.602233 370.021209-370.02121C880.784193 165.673674 715.110519 0 510.762984 0z m154.385861 512.190512c-157.481674 148.956279-308.509767 0-308.962233-0.404838a24.433116 24.433116 0 0 1 0-34.434976 24.45693 24.45693 0 0 1 34.434977 0c0.357209 0.333395 117.99814 116.331163 241.282977-0.35721a24.194977 24.194977 0 1 1 33.244279 35.197024z" p-id="42371"></path><path d="M984.85117 969.799442a527.002791 527.002791 0 0 0-194.178977-216.778419 522.692465 522.692465 0 0 0-69.917767-36.030511 402.217674 402.217674 0 0 1-208.896 58.582325c-76.514233 0-147.884651-21.62307-208.919814-58.582325-23.861581 10.430512-47.294512 21.956465-69.489116 35.863814A527.931535 527.931535 0 0 0 39.199077 969.704186c-3.97693 8.192-4.524651 17.64614-1.500279 26.242977 3.048186 8.739721 9.287442 15.717209 17.503256 19.598884 3.19107 1.571721 6.667907 1.857488 10.144744 2.333767l-0.833488 1.238326h889.546418c5.12 0 10.144744-1.190698 14.836093-3.405396 8.263442-3.97693 14.502698-10.954419 17.503256-19.670325a33.982512 33.982512 0 0 0-1.547907-26.266791z" p-id="42372"></path></svg>