<?xml version="1.0" standalone="no"?><!DOCTYPE svg PUBLIC "-//W3C//DTD SVG 1.1//EN" "http://www.w3.org/Graphics/SVG/1.1/DTD/svg11.dtd"><svg t="1628041379199" class="icon" viewBox="0 0 1024 1024" version="1.1" xmlns="http://www.w3.org/2000/svg" p-id="34005" xmlns:xlink="http://www.w3.org/1999/xlink" width="200" height="200"><defs><style type="text/css"></style></defs><path d="M578.9 692.4h-3.3v-83.6c48.5-39.1 82.1-119.3 82.1-189.3 0-96.9-64.1-137.4-143.2-137.4s-143.2 40.5-143.2 137.4c0 70.1 33.6 150.2 82.1 189.3V693c-81.4 6.4-237.8 65.2-237.8 136.8v44.5h597.9v-42.6c-0.2-77-157.7-139.3-234.6-139.3z" fill="#A0A0A0" p-id="34006"></path><path d="M695 303.3c49.2 18.8 173.1 91 42.4 295.4-3.8 6-1 13.9 5.8 15.9 33 9.5 116.8 38.5 159.7 98.3 3.9 5.5 5.7 12.2 5.7 18.9v30.6c0 2.1-1.7 3.9-3.9 3.9h-87.4c-1.5 0-2.9-0.7-3.8-2-8.3-11.8-71.7-73.4-187.4-101.3-4.6-1.1-7.9-5.1-7.9-9.8v-23.7c0-8.3 4.6-20 9.9-26.4 29-34.5 91.3-137.7 58.5-242.1-2.2-6.9-2.2-9.4-9-23.7-6.6-13.8-12.1-18.4-17-27.8-4.3-8.1 15.8-13.3 34.4-6.2zM334.4 303.3c-49.2 18.8-173.1 91-42.4 295.4 3.8 6 1 13.9-5.8 15.9-33 9.5-116.8 38.5-159.7 98.3-3.9 5.5-5.7 12.2-5.7 18.9v30.6c0 2.1 1.7 3.9 3.9 3.9h87.4c1.5 0 2.9-0.7 3.8-2 8.3-11.8 71.7-73.4 187.4-101.3 4.6-1.1 7.9-5.1 7.9-9.8v-23.7c0-8.3-4.6-20-9.9-26.4-29-34.5-91.3-137.7-58.5-242.1 2.2-6.9 2.2-9.4 9-23.7 6.6-13.8 12.1-18.4 17-27.8 4.3-8.1-15.8-13.3-34.4-6.2z" fill="#A0A0A0" p-id="34007"></path><path d="M915.2 566.8c-16.6 0-30-13.4-30-30V249.4c0-21.8-17.8-39.6-39.6-39.6H178.4c-21.8 0-39.6 17.8-39.6 39.6v287.4c0 16.6-13.4 30-30 30s-30-13.4-30-30V249.4c0-54.9 44.7-99.6 99.6-99.6h667.1c54.9 0 99.6 44.7 99.6 99.6v287.4c0.1 16.6-13.4 30-29.9 30z" fill="#A0A0A0" p-id="34008"></path></svg>